<?xml version="1.0" encoding="UTF-8" standalone="no"?>
<!DOCTYPE svg PUBLIC "-//W3C//DTD SVG 1.1//EN" "http://www.w3.org/Graphics/SVG/1.1/DTD/svg11.dtd">
<svg width="100%" height="100%" viewBox="0 0 178 178" version="1.1" xmlns="http://www.w3.org/2000/svg" xmlns:xlink="http://www.w3.org/1999/xlink" xml:space="preserve" xmlns:serif="http://www.serif.com/" style="fill-rule:evenodd;clip-rule:evenodd;stroke-linejoin:round;stroke-miterlimit:2;">
    <g transform="matrix(5.55556,0,0,5.55556,0,0)">
        <g transform="matrix(0.00206369,0,0,-0.00206369,8.38652,30.4085)">
            <g>
                <g transform="matrix(325.351,0,0,-325.351,-3968.67,14886.2)">
                    <rect x="-4.52" y="-2.344" width="55.259" height="56.72" style="fill:rgb(4,113,73);"/>
                </g>
                <g transform="matrix(-2.21201,-5.30169e-32,-5.30169e-32,2.21201,12143.5,900.038)">
                    <path d="M4755,5085C4700,5078 4625,5065 4589,5056C4486,5032 4347,4977 4250,4921L4162,4870L4097,4870C4061,4870 4019,4865 4005,4860L3978,4850L3984,4822C4005,4736 4023,4688 4046,4661L4072,4630L4116,4630L4168,4674C4241,4737 4349,4794 4471,4834C4617,4883 4716,4901 4855,4907L4975,4912L5088,4896C5150,4887 5240,4866 5289,4850C5381,4820 5534,4749 5545,4730L5551,4720L5488,4661C5453,4629 5403,4584 5375,4563C5256,4469 5181,4358 5146,4224L5130,4162L5130,3964L5145,3905C5167,3823 5213,3741 5271,3681L5321,3630L5473,3554C5556,3512 5642,3466 5665,3450C5687,3435 5729,3397 5758,3366L5811,3310L5846,3237C5865,3197 5885,3137 5890,3104C5896,3072 5900,2978 5900,2895L5900,2745L5886,2679C5867,2592 5839,2538 5777,2473L5726,2419L5661,2387L5595,2355L5373,2355L5205,2439L5137,2506L5070,2572L5035,2644L5000,2715L4990,2785C4985,2824 4980,2865 4980,2878L4980,2900L5008,2912C5099,2948 5161,2985 5206,3028L5257,3077L5283,3131C5298,3161 5312,3210 5316,3241L5322,3297L5306,3355L5289,3413L5237,3465L5184,3517L5125,3540L5065,3563L4954,3568L4843,3572L4788,3561C4709,3544 4617,3498 4572,3450L4532,3409L4516,3363C4507,3337 4500,3289 4500,3255L4500,3193L4560,3073L4683,2950L4739,2930C4770,2919 4801,2907 4808,2905L4820,2901L4820,2847C4820,2766 4803,2692 4770,2625L4741,2565L4688,2511C4592,2413 4507,2367 4388,2349L4318,2338L4254,2350L4191,2362L4129,2399C4055,2442 3990,2512 3941,2600L3904,2665L3860,2689C3836,2702 3820,2708 3824,2702L3831,2690L3792,2690L3760,2653C3720,2608 3706,2575 3686,2480C3672,2410 3600,2185 3585,2160L3578,2149L3545,2249C3526,2303 3493,2385 3470,2430L3429,2511L3467,2526C3525,2550 3617,2621 3694,2698L3763,2768L3725.62,2794.9L3681,2820C3642,2831 3570,2861 3520,2886L3429,2932L3418,2955C3412,2968 3410,2986 3414,2996L3420,3013L3454,3007C3501,2999 3681,2926 3733,2893L3768.04,2879.14L3801,2868C3816,2869 3728,2785 3763,2768L3914.38,2734.86L3983.18,2712.96C3983.18,2712.96 4033.31,2680.37 4065.34,2772.57L4000.99,2821.38L3938.5,2837.74C3925.5,2847.74 3910.18,2841.63 3872.18,2856.63L3801,2868L3873,3031L3868,3048L3837,3053C3819,3055 3747,3072 3675,3090C3604,3108 3528,3126 3508,3131L3471,3140L3465,3160C3461,3171 3462,3189 3465,3200L3471,3220L3508,3220C3564,3220 3774.44,3179.08 3814.44,3158.08C3834.44,3148.08 3868.68,3149.31 3893.68,3134.31L3868,3048L4026.94,2976.01L4082.24,2987.19L4100.43,3032.25C4116.43,3057.25 4076.54,3059.48 4069.54,3086.48L4012.83,3104.58L3973.86,3111.91C3955.86,3119.91 3955.86,3120.66 3923.86,3123.66C3893.37,3142.88 3905.68,3130.31 3893.68,3134.31L3900,3240L3900,3331.65L3994,3332L4089,3335L4145,3377L4151,3439L4110,3480L4067,3480C4043,3480 3986.65,3492.88 3957.65,3483.88L3890,3483L3900,3331.65L3861.24,3338.78L3811.7,3342.69L3746,3340L3594,3340L3572,3356L3549,3372L3552,3393L3555,3415L3625,3428C3664,3435 3739,3450 3793,3462L3890,3483L3890,3529C3890,3596 3868,3679 3833,3743L3802,3800L3820,3838C3844,3889 3857,3946 3880,4102L3900,4235L3900,4370C3900,4543 3886,4671 3856,4780C3824,4895 3803,4938 3766,4962L3735,4981L3695,4977C3584,4965 3350,4812 3128,4607L3022,4509L2958,4528C2923,4539 2838,4556 2768,4566L2642,4584L2503,4572C2426,4565 2342,4553 2314,4545C2287,4537 2246,4525 2222,4518L2180,4506L2122,4561C1990,4689 1785,4838 1633,4917L1530,4970L1454,4970L1430,4953C1416,4944 1399,4929 1393,4920C1370,4893 1332,4757 1315,4643L1298,4530L1303,4298L1307,4065L1324,3976C1333,3926 1350,3866 1361,3841L1380,3797L1366,3781C1358,3772 1345,3748 1336,3727C1316,3678 1290,3552 1290,3502L1290,3463L1332,3456C1356,3453 1424,3443 1484,3436C1544,3428 1597,3417 1602,3412C1607,3407 1610,3392 1608,3379L1605,3356L1580,3342L1555,3329L1465,3336L1375,3342L1331.08,3342.81L1268,3340L1275,3416L1290,3463L1229.49,3470.85C1214.49,3476.85 1188,3474 1168,3477L1130,3483L1105,3466L1079,3449L1085,3375L1120,3358L1155,3340L1268,3340L1272,3298C1274,3274 1275,3248 1272,3239L1295.31,3163.42L1224.71,3159.88C1195.71,3156.88 1158.32,3153.46 1135.32,3142.46L1093.28,3136.18L1052.4,3114.89C1048.4,3057.89 1071.56,3023.96 1109.56,3023.96C1124.56,3023.96 1241,3021 1300,3049L1295.31,3163.42L1462,3191C1513,3201 1587,3213 1626,3216L1698,3223L1709,3202C1715,3191 1717,3175 1714,3166C1705,3142 1632,3112 1529,3089L1435,3069L1369.82,3062.38L1300,3049L1318.9,2881L1283.26,2872.04L1235.4,2846.84L1205.96,2831.32L1128.17,2789.66L1061.78,2719.21C1064.78,2704.21 1077.95,2689.19 1086.95,2680.19L1137.12,2660.95L1356,2757C1358.44,2757.87 1294.25,2870.95 1318.9,2881C1346.9,2892 1419,2919 1498,2945C1577,2971 1653,2998 1668,3006C1701,3023 1742,3024 1758,3008C1765,3001 1770,2986 1770,2973L1770,2950L1747,2936C1720,2918 1526,2840 1510,2840C1493,2840 1391,2785 1356,2757C1356.01,2757.01 1360.02,2760.21 1359.79,2759.75L1356,2757L1529,2648C1578,2601 1637,2551 1660,2539C1682,2527 1700,2512 1700,2508C1700,2503 1693,2485 1684,2468C1655,2411 1578,2216 1530,2075C1504,1998 1468,1870 1450,1790C1433,1710 1416,1639 1414,1631L1409,1617L1384,1641C1352,1670 1196,1867 1150,1934C1100,2009 982,2260 945,2375C904,2498 875,2644 860,2802L849,2918L860,3042C872,3178 895,3284 945,3429C987,3551 1004,3638 997,3696L992,3742L964,3783C948,3805 919,3831 900,3841L865,3860L739,3860L700,3840C678,3829 645,3804 626,3785C562,3722 494,3550 450,3343L429,3245L423,3070L418,2895L433,2760L449,2625L493,2450C517,2354 558,2222 584,2157C720,1809 928,1512 1247,1208C1406,1056 1702,815 1850,716C1992,621 2146,527 2230,485C2371,414 2736,276 2878,240C3015,206 3207,172 3341,160L3466,148L3665,152L3865,156L3914,177L3963,197L4115,161L4205,160L4296,160L4354,175C4484,209 4624,307 4689,409C4707,436 4730,484 4741,517L4762,575L4762,749L4745,807C4711,924 4639,1033 4545,1112C4517,1134 4450,1175 4395,1202L4295,1250L4217,1265C4174,1273 4103,1280 4061,1280L3983,1280L3905,1260C3862,1249 3819,1240 3810,1240L3792,1240L3786,1263C3783,1275 3780,1300 3780,1318C3780,1371 3712,1748 3685,1845C3671,1895 3660,1943 3660,1953C3660,1964 3669,1983 3679,1996C3690,2010 3711,2053 3726,2093C3741,2133 3775,2222 3802,2293L3851,2420L3866,2420C3874,2420 3880,2416 3880,2411C3880,2391 3988,2285 4045,2248C4109,2206 4202,2175 4291,2165C4369,2156 4465,2121 4549,2070L4620,2028L4692,2008L4765,1988L5005,1978L5075,1994C5169,2017 5330,2082 5387,2122L5435,2154L5533,2167L5632,2180L5705,2214C5794,2257 5879,2328 5928,2398L5964,2451L5977,2434C5984,2424 5990,2411 5990,2405C5990,2400 6008,2341 6029,2275C6070,2148 6119,1955 6142,1830L6155,1755L6154,1462C6153,1301 6150,1167 6148,1165C6145,1162 6114,1172 6079,1186C6044,1201 5977,1226 5930,1244L5845,1275L5700,1274L5555,1274L5465,1241C5361,1203 5261,1150 5208,1105C5122,1032 5034,888 5003,767L4988,705L4993,628L4998,550L5028,488C5044,453 5076,404 5099,378L5141,330L5204,300C5239,284 5298,263 5336,254L5405,238L5565,248L5663,284C5716,304 5779,329 5803,341C5826,353 5881,399 5926,444L6006,525L6048.77,589.367C6062.77,619.367 6053.24,588.175 6078.91,634.098L6138.56,729.837L6279.82,868.412C6344.82,927.412 6360,950 6397,972C6512,1041 6720,1201 6827,1304C6883,1357 6952,1432 6979,1469C7007,1507 7054,1589 7084,1651L7138,1765L7170,1909L7170,1997C7170,2148 7135,2265 7056,2382C6955,2532 6824,2628 6690,2649L6627,2659L6559,2650C6470,2637 6382,2604 6348,2569L6320,2542L6320,2505C6320,2485 6326,2457 6334,2442C6342,2427 6375,2382 6408,2342C6467,2270 6490,2219 6490,2164C6490,2112 6469,2059 6434,2020L6400,1982L6349,1960C6321,1948 6297,1940 6295,1942C6294,1944 6281,1990 6266,2045C6240,2148 6199,2285 6135,2495C6114,2561 6092,2638 6084,2665L6070,2715L6070,2961L6113,2932C6136,2917 6178,2894 6207,2882L6259,2860L6337,2860C6380,2860 6443,2867 6475,2875C6550,2895 6653,2950 6704,2998C6725,3019 6772,3079 6809,3134C6845,3188 6892,3258 6913,3289C6964,3364 7031,3498 7065,3590C7099,3685 7120,3794 7120,3873C7120,3963 7095,4065 7054,4148L7018,4221L6960,4284L6901,4347L6843,4378C6811,4394 6746,4424 6698,4444C6555,4503 6514,4531 6360,4674C6271,4756 6163,4826 6072,4860C6042,4871 5984,4884 5942,4889L5865,4897L5748,4888L5631,4878L5585,4910C5495,4972 5330,5037 5193,5064C5112,5080 4927,5101 4881,5099C4867,5098 4810,5092 4755,5085ZM5923,4700C6009,4687 6089,4659 6151,4619C6178,4602 6257,4535 6326,4470L6453,4351L6534,4311C6578,4289 6648,4259 6689,4244L6764,4217L6808,4173C6832,4149 6862,4106 6875,4077C6888,4048 6904,3991 6911,3950L6922,3875L6916,3805C6913,3767 6903,3708 6895,3675C6871,3585 6805,3443 6755,3375C6731,3342 6681,3273 6645,3222C6608,3171 6564,3119 6547,3106C6483,3057 6353,3037 6266,3061L6227,3072L6132,3167L6078,3335L6068,3595L6084,3734C6093,3810 6100,3933 6100,4006L6100,4138L6086,4212C6078,4252 6062,4310 6051,4341C6021,4421 5946,4522 5851,4613C5807,4655 5770,4695 5770,4700L5770,4710L5813,4710C5836,4710 5885,4705 5923,4700ZM1633,4590C1720,4532 1847,4416 1873,4372L1891,4341L1863,4324C1738,4248 1640,4158 1573,4056L1541,4007L1530,4034C1525,4049 1515,4104 1509,4156L1498,4250L1502,4423L1506,4595L1518,4618C1525,4630 1537,4640 1545,4640C1552,4640 1592,4617 1633,4590ZM3674,4625C3677,4617 3684,4555 3690,4488L3700,4365L3691,4227C3681,4092 3666,4010 3652,4010C3648,4010 3636,4026 3626,4045C3603,4087 3482,4205 3390,4274C3354,4301 3321,4327 3316,4331L3307,4339L3329,4374C3374,4446 3608,4640 3650,4640C3660,4640 3670,4633 3674,4625ZM2644,4417L2661,4404L2655,4042L2636,4021C2625,4009 2606,4000 2594,4000L2570,4000L2553,4027L2535,4054L2535,4411L2550,4420C2572,4434 2623,4432 2644,4417ZM2341,4400L2335,4038L2311,4019C2298,4008 2280,4000 2272,4002C2264,4004 2248,4018 2236,4033L2215,4061L2209,4345L2218,4358C2228,4373 2294,4399 2323,4400L2341,4400ZM2940,4387L2975,4375L2982,4330C2985,4305 2986,4236 2983,4175L2977,4065L2963,4038L2950,4010L2923,4004L2897,3997L2873,4024L2850,4051L2850,4400L2878,4399C2893,4399 2921,4394 2940,4387ZM5677,4035L5728,4020L5765,3979C5802,3937 5839,3868 5840,3839C5840,3822 5805,3786 5779,3777C5770,3774 5759,3775 5753,3778C5747,3782 5731,3808 5716,3837C5702,3865 5680,3896 5668,3904C5638,3925 5585,3924 5549,3903C5532,3893 5507,3865 5493,3840C5479,3815 5462,3792 5456,3788C5440,3777 5391,3808 5384,3834L5379,3857L5395,3896C5404,3917 5421,3945 5433,3959C5475,4004 5557,4046 5611,4049C5619,4050 5649,4043 5677,4035ZM3485,3617L3500,3594L3485,3537C3477,3505 3461,3461 3450,3439C3420,3381 3360,3324 3299,3295L3245,3270L3194,3270C3166,3270 3123,3277 3097,3286L3050,3302L3001,3346L2951,3391L2921,3452L2890,3513L2890,3550C2890,3588 2905,3614 2930,3622C2957,3631 2978,3611 2994,3562C3023,3474 3076,3420 3153,3399L3191,3389L3228,3401C3248,3407 3279,3423 3296,3435C3327,3458 3390,3565 3390,3593C3390,3612 3427,3640 3452,3640C3462,3640 3476,3630 3485,3617ZM1789,3584C1813,3491 1879,3419 1958,3402L2000,3392L2037,3400C2105,3416 2155,3470 2188,3563C2197,3590 2213,3616 2222,3621L2239,3630L2264,3620C2278,3615 2293,3603 2299,3592L2309,3574L2299,3531C2286,3471 2255,3415 2207,3362L2165,3317L2115,3294L2065,3270L1933,3270L1873,3300L1812,3331L1772,3383C1718,3452 1690,3515 1690,3567L1690,3609L1708,3619C1717,3625 1737,3630 1751,3630L1778,3630L1789,3584ZM2716,3399C2735,3388 2753,3368 2756,3356C2765,3321 2737,3266 2691,3230L2650,3197L2650,3149C2650,3088 2663,3053 2702,3013C2737,2977 2775,2965 2825,2974L2859,2981L2887,3023L2916,3065L2943,3068C2978,3072 3000,3055 3000,3024C3000,2986 2954,2922 2903,2890C2878,2874 2838,2858 2813,2854L2769,2848L2723,2865L2677,2883L2575,2981L2540,2942C2499,2897 2448,2866 2399,2856L2364,2850L2329,2861C2252,2887 2190,2957 2190,3017L2190,3049L2230,3071L2250,3060C2261,3054 2270,3045 2270,3041C2270,3036 2283,3018 2299,3001L2328,2970L2364,2970C2413,2970 2445,2987 2474,3029L2499,3065L2509,3124L2520,3183L2420,3289L2420,3367L2443,3387C2455,3398 2472,3410 2480,3413C2488,3416 2537,3419 2589,3419L2683,3420L2716,3399ZM4942,3409L4980,3399L4992,3349L4974,3335C4963,3327 4930,3313 4900,3304C4870,3295 4810,3274 4766,3257L4688,3226L4672,3236C4650,3251 4642,3281 4652,3317L4660,3349L4692,3371C4752,3414 4864,3431 4942,3409ZM4965,2453C5023,2377 5107,2305 5168,2279L5211,2260L5208,2243L5205,2225L5055,2149L4915,2129L4826,2139L4736,2149L4685,2174C4657,2188 4623,2211 4610,2224L4587,2249L4614,2260C4629,2265 4645,2270 4649,2270C4664,2270 4785,2367 4827,2412C4850,2437 4876,2472 4884,2489C4893,2506 4904,2520 4908,2519C4912,2519 4938,2489 4965,2453ZM6737,2454L6792,2428L6846,2372L6901,2317L6935,2246C6953,2207 6974,2147 6980,2113L6992,2051L6988,1948L6983,1845L6962,1780C6950,1744 6919,1677 6893,1630L6845,1545L6740,1440L6635,1334L6540,1270C6488,1235 6419,1187 6388,1163C6357,1139 6329,1120 6327,1120C6324,1120 6323,1266 6324,1445L6325,1770L6341,1770C6350,1770 6385,1784 6420,1801L6482,1833L6539,1889L6595,1945L6622,2000C6636,2030 6653,2081 6660,2114L6672,2172L6665,2218C6661,2244 6649,2289 6638,2319L6617,2374L6519,2470L6532,2474C6539,2477 6552,2481 6560,2484C6568,2487 6599,2488 6629,2485L6682,2481L6737,2454ZM2794,1846L2869,1809L2921,1757C2993,1686 3044,1603 3074,1512C3105,1419 3115,1352 3130,1155L3142,1005L3135,730C3132,579 3127,438 3124,417L3118,380L3102,380C3094,380 3023,396 2946,416C2798,453 2469,569 2310,640C2258,663 2183,696 2143,713L2071,744L2064,809C2056,887 2067,1214 2081,1317C2094,1411 2130,1531 2168,1606C2206,1682 2276,1767 2336,1810C2362,1829 2411,1854 2444,1867L2505,1890L2719,1884L2794,1846ZM4190,1109C4215,1104 4281,1077 4336,1050L4438,1001L4483,948C4507,919 4540,870 4556,840L4585,785L4585,575L4555,515C4525,456 4469,390 4449,390L4438,390L4444,453C4448,487 4446,546 4441,584L4431,652L4409,676C4397,689 4376,700 4364,700L4341,700L4334,678C4329,665 4326,591 4325,513L4325,371L4309,354L4292,338L4239,336L4185,335L4189,441L4192,547L4160,659L4134,679C4119,691 4097,700 4084,700L4060,700L4045,676L4030,653L4032,519L4035,385L4008,387C3993,388 3964,401 3945,416L3910,443L3858,529C3830,576 3790,638 3769,666C3723,726 3700,787 3700,847L3700,891L3719,928C3762,1010 3875,1088 3982,1109C4043,1121 4137,1121 4190,1109ZM5820,1093C5878,1077 6058,984 6100,949L6125,928L6085,896C6004,832 5923,742 5873,660C5821,575 5766,513 5722,490C5709,484 5696,481 5693,483C5690,486 5688,528 5689,577C5689,625 5686,680 5682,699L5675,733L5655,740C5644,744 5625,744 5612,739L5589,730L5575,695L5560,661L5560,587C5560,546 5565,499 5571,481C5577,463 5579,446 5576,443C5572,439 5549,436 5524,436L5478,435L5456,463L5435,492L5438,621L5440,750L5368,750L5302,684L5288,592L5299,524C5305,487 5307,454 5305,452C5303,449 5287,453 5270,460C5232,476 5195,519 5180,566L5168,602L5172,694L5176,785L5238,905L5297,961C5386,1047 5490,1094 5625,1110C5695,1119 5743,1115 5820,1093Z" style="fill:rgb(255,179,23);fill-rule:nonzero;"/>
                    <path d="M4185,4036C4114,4003 4060,3937 4039,3858L4027,3813L4039,3782L4052,3752L4081,3740C4097,3733 4116,3730 4125,3734C4133,3737 4152,3764 4166,3795C4181,3825 4206,3862 4223,3876L4254,3902L4297,3897C4321,3895 4347,3887 4356,3879C4365,3872 4385,3840 4401,3808L4431,3749L4455,3738L4480,3727L4505,3738C4519,3745 4535,3762 4541,3777L4551,3803L4534,3855C4526,3884 4502,3929 4482,3956L4445,4005L4391,4033L4336,4060L4235,4060L4185,4036Z" style="fill:rgb(255,179,23);fill-rule:nonzero;"/>
                    <path d="M4212,2988C4207,2981 4199,2965 4196,2953L4189,2931L4209,2911C4221,2899 4241,2890 4255,2890L4279,2890L4290,2909C4295,2920 4300,2937 4300,2948C4300,2988 4236,3017 4212,2988Z" style="fill:rgb(255,179,23);fill-rule:nonzero;"/>
                    <path d="M4423,2992C4417,2988 4406,2971 4400,2955L4389,2925L4415,2903C4429,2890 4447,2880 4454,2880C4461,2880 4475,2889 4485,2900L4502,2919L4495,2947C4492,2962 4484,2981 4478,2987C4466,3001 4441,3004 4423,2992Z" style="fill:rgb(255,179,23);fill-rule:nonzero;"/>
                    <path d="M5535,2978C5521,2967 5510,2951 5510,2941C5510,2916 5542,2890 5573,2890L5600,2890L5632,2940L5617,2964C5608,2977 5592,2990 5581,2993L5560,2998L5535,2978Z" style="fill:rgb(255,179,23);fill-rule:nonzero;"/>
                    <path d="M5330,2975C5323,2967 5318,2949 5318,2935C5318,2921 5323,2903 5330,2895C5345,2877 5391,2875 5408,2892C5426,2910 5422,2948 5400,2970C5376,2994 5347,2996 5330,2975Z" style="fill:rgb(255,179,23);fill-rule:nonzero;"/>
                    <path d="M4425,2754C4411,2739 4400,2719 4400,2710C4400,2688 4431,2660 4457,2660C4482,2660 4510,2690 4510,2718C4510,2741 4478,2780 4460,2780C4454,2780 4438,2768 4425,2754Z" style="fill:rgb(255,179,23);fill-rule:nonzero;"/>
                    <path d="M4206,2754C4197,2746 4190,2725 4190,2710L4190,2680L4240,2648L4290,2680L4290,2737L4272,2753C4249,2774 4226,2775 4206,2754Z" style="fill:rgb(255,179,23);fill-rule:nonzero;"/>
                    <path d="M5322,2758C5315,2751 5310,2732 5310,2715C5310,2698 5315,2679 5322,2672C5340,2654 5385,2658 5403,2678C5424,2701 5424,2719 5404,2748L5389,2770L5361,2770C5346,2770 5329,2765 5322,2758Z" style="fill:rgb(255,179,23);fill-rule:nonzero;"/>
                    <path d="M5532,2758C5527,2751 5519,2735 5516,2723L5509,2700L5534,2675C5564,2645 5591,2643 5613,2668C5634,2691 5635,2719 5614,2748L5599,2770L5571,2770C5555,2770 5538,2764 5532,2758Z" style="fill:rgb(255,179,23);fill-rule:nonzero;"/>
                </g>
            </g>
        </g>
    </g>
</svg>
